PathFileType	4	(X/Y/Z)	D:\Share\Shared_Data\Ergonomics\Sit To Stand Pertubation\S0\Perturbed STS.trc
DataRate	CameraRate	NumFrames	NumMarkers	Units	OrigDataRate	OrigDataStartFrame	OrigNumFrames	
100	100	11	18	m	100	8696	221
Frame#	Time	R_Heel			R_ASIS			R_Pelvis			V_Sacral			L_Pelvis			L_ASIS			Clavical			R_Acromium			L_Acromium			Sternum			Torso			R_Thigh_Med			R_Thigh_Lat			R_Thigh			R_Shank_Med			R_Shank_Lat			R_Shank			R_Toe			
		X1	Y1	Z1	X2	Y2	Z2	X3	Y3	Z3	X4	Y4	Z4	X5	Y5	Z5	X6	Y6	Z6	X7	Y7	Z7	X8	Y8	Z8	X9	Y9	Z9	X10	Y10	Z10	X11	Y11	Z11	X12	Y12	Z12	X13	Y13	Z13	X14	Y14	Z14	X15	Y15	Z15	X16	Y16	Z16	X17	Y17	Z17	X18	Y18	Z18	

8696	43.3	0.16017635	0.045760433	0.11939145	-0.044935623	0.73896967	0.12758537	-0.17272987	0.71344495	0.16980205	-0.28347424	0.67246454	-0.061244328	-0.13867957	0.70238196	-0.23577348	-0.021441999	0.73043445	-0.18812082	0.0064852862	1.0953398	-0.043411671	-0.068008911	1.1703248	0.094388206	-0.071393867	1.1675795	-0.19769574	0.023520828	0.99877515	-0.057092785	0.0064364257	1.0436019	-0.16402577	0.31097626	0.4926366	0.05169566	0.28926715	0.50994049	0.1849852	0.21564246	0.64457745	0.099059402	0.25923291	0.1049315	0.076977341	0.20241924	0.088332932	0.16610683	0.25792496	0.31053662	0.19269499	0.38405844	0.050453499	0.11170284
8697	43.31	0.16016064	0.045727428	0.11937196	-0.044473301	0.73878931	0.12762819	-0.17237642	0.71365924	0.16981425	-0.28327274	0.67302423	-0.061210892	-0.13836378	0.70266113	-0.23576035	-0.020919851	0.73032349	-0.18810349	0.0095315876	1.0944874	-0.043304878	-0.064425255	1.1699911	0.094485092	-0.067888054	1.1672755	-0.19753938	0.025874527	0.99782428	-0.056986553	0.0091325035	1.0427883	-0.1638988	0.31089502	0.49260913	0.051716805	0.28923508	0.50991983	0.18500507	0.2156669	0.64453284	0.099078278	0.25919479	0.10493199	0.07696682	0.20239032	0.088317123	0.16610403	0.25787463	0.31053094	0.19270161	0.38402487	0.050467426	0.11167944
8698	43.32	0.16014807	0.045688221	0.11934013	-0.043969593	0.73861664	0.12767043	-0.17200026	0.71388507	0.16983179	-0.28304333	0.67361572	-0.06118047	-0.13802678	0.70295331	-0.23574672	-0.020403912	0.73019592	-0.18807574	0.012673453	1.0935735	-0.043192532	-0.060701214	1.1696224	0.094587097	-0.064240143	1.1669404	-0.19737494	0.028331009	0.99682611	-0.056875198	0.01193711	1.0419302	-0.1637644	0.31080844	0.49257639	0.051733864	0.28920502	0.50989795	0.18502005	0.21569382	0.64448395	0.099091049	0.25915863	0.10493208	0.076953247	0.20236279	0.088302094	0.16609906	0.25782339	0.31052661	0.19270348	0.3839906	0.05048027	0.11165468
8699	43.33	0.16013802	0.045644566	0.1192982	-0.043411671	0.73846356	0.12771362	-0.171601	0.71412469	0.16985406	-0.28278284	0.67424133	-0.06115498	-0.13766628	0.70325854	-0.23573273	-0.019899933	0.73004901	-0.18803792	0.015912396	1.0925988	-0.043076023	-0.05683287	1.1692161	0.094693695	-0.060448227	1.1665731	-0.19720242	0.030890295	0.99577893	-0.056758949	0.014848808	1.0410258	-0.16362248	0.31071579	0.4925386	0.051745964	0.28917758	0.50987476	0.18502977	0.21572375	0.64443085	0.099098579	0.25912424	0.10493108	0.076936234	0.20233633	0.088287697	0.16609116	0.25777209	0.3105235	0.19269868	0.38395642	0.050491459	0.11162952
8700	43.34	0.16012898	0.045599171	0.11925089	-0.042781761	0.7383468	0.12775954	-0.17117746	0.71438	0.16988062	-0.28249023	0.6749032	-0.061136105	-0.13727991	0.70357733	-0.2357188	-0.019399136	0.7298844	-0.1879928	0.019255774	1.091569	-0.042956921	-0.052817036	1.1687698	0.094804123	-0.056510139	1.1661727	-0.19702173	0.03355275	0.99468115	-0.056637737	0.017866392	1.040073	-0.16347256	0.31061716	0.49249655	0.051752247	0.28915326	0.50984973	0.18503424	0.21575728	0.64437433	0.099102386	0.25909152	0.10492868	0.076915901	0.20231027	0.088273598	0.16608029	0.25772125	0.31052121	0.19268614	0.38392303	0.050500828	0.11160473
8701	43.35	0.160119	0.045554871	0.11920436	-0.042059155	0.73828546	0.12780979	-0.17072798	0.7146524	0.1699113	-0.28216617	0.67560272	-0.061124943	-0.13686539	0.70391083	-0.23570531	-0.018881601	0.72970746	-0.18794394	0.022715078	1.0904915	-0.042836288	-0.048651741	1.1682817	0.094917702	-0.052423508	1.1657375	-0.1968325	0.036318855	0.99353198	-0.056511284	0.020989431	1.0390698	-0.16331386	0.31051315	0.49245096	0.051752102	0.28913235	0.50982208	0.18503349	0.21579482	0.6443139	0.099104271	0.25906058	0.10492482	0.076892853	0.20228384	0.088259323	0.166067	0.2576709	0.31051932	0.19266557	0.38389078	0.050508293	0.11158076
8702	43.36	0.16010654	0.045513199	0.1191637	-0.041225533	0.73829651	0.12786559	-0.17025067	0.71494214	0.16994629	-0.28181284	0.67634094	-0.061121613	-0.13642056	0.70426031	-0.23569232	-0.0183279	0.72952423	-0.18789362	0.026300478	1.0893708	-0.042713966	-0.044336506	1.1677499	0.095034431	-0.048185974	1.1652654	-0.19663457	0.039188896	0.99233051	-0.05637925	0.024218882	1.0380142	-0.163146	0.31040454	0.49240186	0.051745422	0.28911536	0.50979095	0.18502765	0.21583665	0.64424884	0.099105621	0.25903131	0.1049193	0.07686805	0.20225656	0.088244263	0.16605238	0.25762088	0.31051736	0.19263776	0.38385971	0.050513691	0.11155801
8703	43.37	0.16009106	0.045473873	0.1191313	-0.040270481	0.73838928	0.12792725	-0.16974359	0.71524915	0.16998586	-0.28143274	0.67711829	-0.061125347	-0.13594341	0.70462732	-0.23567976	-0.01772686	0.72933832	-0.18784218	0.030016382	1.0882059	-0.042588299	-0.039872116	1.167172	0.095155098	-0.043795193	1.1647539	-0.19642755	0.042162952	0.99107556	-0.056241367	0.02755719	1.0369053	-0.16296909	0.31029205	0.49234845	0.051732601	0.28910263	0.50975562	0.18501683	0.21588339	0.64417798	0.099106842	0.25900342	0.10491155	0.076842552	0.20222823	0.088227669	0.16603769	0.25757068	0.31051508	0.19260428	0.38382996	0.050516842	0.11153707
8704	43.38	0.16007268	0.045435589	0.11910733	-0.039196068	0.73856018	0.127994	-0.16920494	0.71557275	0.17003052	-0.28102744	0.67793567	-0.06113451	-0.13543167	0.70501288	-0.23566754	-0.017074387	0.72915179	-0.1877887	0.033862144	1.0869904	-0.042456272	-0.035260406	1.1665453	0.095281059	-0.039248753	1.1642017	-0.19621129	0.04524065	0.98976654	-0.056097351	0.031007669	1.0357433	-0.16278351	0.31017651	0.49228934	0.051714287	0.28909457	0.50971561	0.18500111	0.21593597	0.64409991	0.09910701	0.25897614	0.10490062	0.076817352	0.20219901	0.088208885	0.16602405	0.25752014	0.31051196	0.19256709	0.38380148	0.050517776	0.11151878
8705	43.39	0.16005197	0.045396969	0.11909074	-0.038022411	0.73878558	0.1280636	-0.1686329	0.71591351	0.17008069	-0.2805961	0.67879303	-0.061146248	-0.13488304	0.70541772	-0.23565547	-0.016369436	0.72896539	-0.18773203	0.037835648	1.0857168	-0.042314098	-0.030503368	1.1658678	0.095413765	-0.034544521	1.1636064	-0.19598576	0.048421135	0.98840326	-0.0559468	0.034574226	1.0345286	-0.1625896	0.31005884	0.49222305	0.051691086	0.28909128	0.50967081	0.18498062	0.21599602	0.64401385	0.099104248	0.25894852	0.10488571	0.076793022	0.2021693	0.088187653	0.16601215	0.25746945	0.31050763	0.19252802	0.38377454	0.0505168	0.11150375
8706	43.4	0.16002971	0.045357136	0.1190797	-0.036791245	0.73901672	0.12813278	-0.16802586	0.71627234	0.17013635	-0.2801355	0.67969019	-0.061156494	-0.13429526	0.70584369	-0.23564316	-0.015612199	0.72877948	-0.18767152	0.041935265	1.0843802	-0.042158646	-0.025601742	1.1651394	0.095554451	-0.029681044	1.1629659	-0.1957513	0.05170369	0.98698621	-0.055789108	0.038260956	1.0332629	-0.16238742	0.30994031	0.49214874	0.051663441	0.28909305	0.50962131	0.18495534	0.21606549	0.64391962	0.099096329	0.25892026	0.10486661	0.076769485	0.20213972	0.088164246	0.16600211	0.25741928	0.31050174	0.19248792	0.38374915	0.050514179	0.11149187
